<?xml version="1.0" encoding="UTF-8" standalone="no"?>
<!-- Generator: Adobe Illustrator 25.2.3, SVG Export Plug-In . SVG Version: 6.00 Build 0)  -->

<svg
   version="1.1"
   id="Layer_2"
   x="0px"
   y="0px"
   viewBox="0 0 128 128"
   style="enable-background:new 0 0 128 128;"
   xml:space="preserve"
   sodipodi:docname="unreviewed.svg"
   inkscape:version="1.4.2 (f4327f4, 2025-05-13)"
   xmlns:inkscape="http://www.inkscape.org/namespaces/inkscape"
   xmlns:sodipodi="http://sodipodi.sourceforge.net/DTD/sodipodi-0.dtd"
   xmlns="http://www.w3.org/2000/svg"
   xmlns:svg="http://www.w3.org/2000/svg"><defs
   id="defs13"><filter
     style="color-interpolation-filters:sRGB;"
     inkscape:label="Greyscale"
     id="filter13"
     x="0"
     y="0"
     width="1"
     height="1"><feColorMatrix
       values="0.21 0.72 0.072 0 0 0.21 0.72 0.072 0 0 0.21 0.72 0.072 0 0 0 0 0 1 0 "
       id="feColorMatrix13" /></filter><filter
     style="color-interpolation-filters:sRGB;"
     inkscape:label="Greyscale"
     id="filter14"
     x="0"
     y="0"
     width="1"
     height="1"><feColorMatrix
       values="0.21 0.72 0.072 0 0 0.21 0.72 0.072 0 0 0.21 0.72 0.072 0 0 0 0 0 1 0 "
       id="feColorMatrix14" /></filter><filter
     style="color-interpolation-filters:sRGB;"
     inkscape:label="Greyscale"
     id="filter15"
     x="0"
     y="0"
     width="1"
     height="1"><feColorMatrix
       values="0.21 0.72 0.072 0 0 0.21 0.72 0.072 0 0 0.21 0.72 0.072 0 0 0 0 0 1 0 "
       id="feColorMatrix15" /></filter><filter
     style="color-interpolation-filters:sRGB;"
     inkscape:label="Greyscale"
     id="filter16"
     x="0"
     y="0"
     width="1"
     height="1"><feColorMatrix
       values="0.21 0.72 0.072 0 0 0.21 0.72 0.072 0 0 0.21 0.72 0.072 0 0 0 0 0 1 0 "
       id="feColorMatrix16" /></filter><filter
     style="color-interpolation-filters:sRGB;"
     inkscape:label="Greyscale"
     id="filter17"
     x="0"
     y="0"
     width="1"
     height="1"><feColorMatrix
       values="0.21 0.72 0.072 0 0 0.21 0.72 0.072 0 0 0.21 0.72 0.072 0 0 0 0 0 1 0 "
       id="feColorMatrix17" /></filter><filter
     style="color-interpolation-filters:sRGB;"
     inkscape:label="Greyscale"
     id="filter18"
     x="0"
     y="0"
     width="1"
     height="1"><feColorMatrix
       values="0.21 0.72 0.072 0 0 0.21 0.72 0.072 0 0 0.21 0.72 0.072 0 0 0 0 0 1 0 "
       id="feColorMatrix18" /></filter><filter
     style="color-interpolation-filters:sRGB;"
     inkscape:label="Greyscale"
     id="filter19"
     x="0"
     y="0"
     width="1"
     height="1"><feColorMatrix
       values="0.21 0.72 0.072 0 0 0.21 0.72 0.072 0 0 0.21 0.72 0.072 0 0 0 0 0 1 0 "
       id="feColorMatrix19" /></filter><filter
     style="color-interpolation-filters:sRGB;"
     inkscape:label="Greyscale"
     id="filter20"
     x="0"
     y="0"
     width="1"
     height="1"><feColorMatrix
       values="0.21 0.72 0.072 0 0 0.21 0.72 0.072 0 0 0.21 0.72 0.072 0 0 0 0 0 1 0 "
       id="feColorMatrix20" /></filter><filter
     style="color-interpolation-filters:sRGB;"
     inkscape:label="Greyscale"
     id="filter21"
     x="0"
     y="0"
     width="1"
     height="1"><feColorMatrix
       values="0.21 0.72 0.072 0 0 0.21 0.72 0.072 0 0 0.21 0.72 0.072 0 0 0 0 0 1 0 "
       id="feColorMatrix21" /></filter><filter
     style="color-interpolation-filters:sRGB;"
     inkscape:label="Greyscale"
     id="filter22"
     x="0"
     y="0"
     width="1"
     height="1"><feColorMatrix
       values="0.21 0.72 0.072 0 0 0.21 0.72 0.072 0 0 0.21 0.72 0.072 0 0 0 0 0 1 0 "
       id="feColorMatrix22" /></filter><filter
     style="color-interpolation-filters:sRGB;"
     inkscape:label="Greyscale"
     id="filter23"
     x="0"
     y="0"
     width="1"
     height="1"><feColorMatrix
       values="0.21 0.72 0.072 0 0 0.21 0.72 0.072 0 0 0.21 0.72 0.072 0 0 0 0 0 1 0 "
       id="feColorMatrix23" /></filter><filter
     style="color-interpolation-filters:sRGB;"
     inkscape:label="Greyscale"
     id="filter24"
     x="0"
     y="0"
     width="1"
     height="1"><feColorMatrix
       values="0.21 0.72 0.072 0 0 0.21 0.72 0.072 0 0 0.21 0.72 0.072 0 0 0 0 0 1 0 "
       id="feColorMatrix24" /></filter><filter
     style="color-interpolation-filters:sRGB;"
     inkscape:label="Greyscale"
     id="filter25"
     x="0"
     y="0"
     width="1"
     height="1"><feColorMatrix
       values="0.21 0.72 0.072 0 0 0.21 0.72 0.072 0 0 0.21 0.72 0.072 0 0 0 0 0 1 0 "
       id="feColorMatrix25" /></filter></defs><sodipodi:namedview
   id="namedview13"
   pagecolor="#ffffff"
   bordercolor="#000000"
   borderopacity="0.25"
   inkscape:showpageshadow="2"
   inkscape:pageopacity="0.0"
   inkscape:pagecheckerboard="0"
   inkscape:deskcolor="#d1d1d1"
   inkscape:zoom="6.3046875"
   inkscape:cx="64"
   inkscape:cy="64"
   inkscape:window-width="1920"
   inkscape:window-height="1009"
   inkscape:window-x="-8"
   inkscape:window-y="-8"
   inkscape:window-maximized="1"
   inkscape:current-layer="Layer_2" />
<path
   style="fill:#FF2A23;filter:url(#filter25)"
   d="M63.04,7.57C36.72,6.97,7.69,28.8,8.25,64.16c0.49,31.09,23.85,54.62,54.12,55.11  c30.27,0.49,57.09-19.52,57.25-55.27C119.79,27.97,91.99,8.23,63.04,7.57z"
   id="path1" />
<path
   style="fill:#FFFDFE;filter:url(#filter24)"
   d="M63.12,20.19C42.24,20.9,21.17,36.48,20.68,63.95c-0.49,27.47,23.52,42.77,42.44,42.77  c24.02,0,44.09-18.92,43.59-44.09C106.22,37.47,87.3,19.37,63.12,20.19z"
   id="path2" />
<path
   style="fill:#FF2A23;filter:url(#filter23)"
   d="M63.61,30.89c-18.92-0.43-32.9,16.29-33.07,32.24c-0.16,16.29,10.03,32.9,32.74,33.72  s33.39-17.27,33.72-32.57C97.34,48.98,85.16,31.38,63.61,30.89z"
   id="path3" />
<path
   style="fill:#FFFFFF;filter:url(#filter22)"
   d="M41.98,63.73c-0.16,14.31,10.03,22.54,22.37,22.54c11.21,0,22.21-7.07,22.21-22.04  c0-13.49-10.2-21.55-21.55-22.04C53.66,41.69,42.14,49.92,41.98,63.73z"
   id="path4" />
<path
   style="fill:#FB2B22;filter:url(#filter21)"
   d="M52.1,63.62c-0.61,8.53,6.33,12.61,12.58,12.61c5.92,0,11.76-3.89,11.93-11.79  c0.15-7.42-5.67-11.95-11.93-12.17C58.22,52.05,52.59,56.69,52.1,63.62z"
   id="path5" />








</svg>
